HIERARCHY
ROOT Hips
{
	OFFSET 0.000000 0.000000 0.000000
	CHANNELS 6 Xposition Yposition Zposition Zrotation Yrotation Xrotation 
	JOINT LHipJoint
	{
		OFFSET 0.000000 0.000000 0.000000
		CHANNELS 3 Zrotation Yrotation Xrotation
		JOINT LeftUpLeg
		{
			OFFSET 1.363060 -1.794630 0.839290
			CHANNELS 3 Zrotation Yrotation Xrotation
			JOINT LeftLeg
			{
				OFFSET 2.448110 -6.726130 0.000000
				CHANNELS 3 Zrotation Yrotation Xrotation
				JOINT LeftFoot
				{
					OFFSET 2.562200 -7.039590 0.000000
					CHANNELS 3 Zrotation Yrotation Xrotation
					JOINT LeftToeBase
					{
						OFFSET 0.157640 -0.433110 2.322550
						CHANNELS 3 Zrotation Yrotation Xrotation
						End Site
						{
							OFFSET 0.000000 0.000000 0.000000
						}
					}
				}
			}
		}
	}
	JOINT RHipJoint
	{
		OFFSET 0.000000 0.000000 0.000000
		CHANNELS 3 Zrotation Yrotation Xrotation
		JOINT RightUpLeg
		{
			OFFSET -1.305520 -1.794630 0.839290
			CHANNELS 3 Zrotation Yrotation Xrotation
			JOINT RightLeg
			{
				OFFSET -2.542530 -6.985550 0.000000
				CHANNELS 3 Zrotation Yrotation Xrotation
				JOINT RightFoot
				{
					OFFSET -2.568260 -7.056230 0.000000
					CHANNELS 3 Zrotation Yrotation Xrotation
					JOINT RightToeBase
					{
						OFFSET -0.164730 -0.452590 2.363150
						CHANNELS 3 Zrotation Yrotation Xrotation
						End Site
						{
							OFFSET 0.000000 0.000000 0.000000
						}
					}
				}
			}
		}
	}
	JOINT LowerBack
	{
		OFFSET 0.000000 0.000000 0.000000
		CHANNELS 3 Zrotation Yrotation Xrotation
		JOINT Spine
		{
			OFFSET 0.028270 2.035590 -0.193380
			CHANNELS 3 Zrotation Yrotation Xrotation
			JOINT Spine1
			{
				OFFSET 0.056720 2.048850 -0.042750
				CHANNELS 3 Zrotation Yrotation Xrotation
				JOINT Neck
				{
					OFFSET 0.000000 0.000000 0.000000
					CHANNELS 3 Zrotation Yrotation Xrotation
					JOINT Neck1
					{
						OFFSET -0.054170 1.746240 0.172020
						CHANNELS 3 Zrotation Yrotation Xrotation
						JOINT Head
						{
							OFFSET 0.104070 1.761360 -0.123970
							CHANNELS 3 Zrotation Yrotation Xrotation
							End Site
							{
								OFFSET 0.000000 0.000000 0.000000
							}
						}
					}
				}
				JOINT LeftShoulder
				{
					OFFSET 0.000000 0.000000 0.000000
					CHANNELS 3 Zrotation Yrotation Xrotation
					JOINT LeftArm
					{
						OFFSET 3.362410 1.200890 -0.311210
						CHANNELS 3 Zrotation Yrotation Xrotation
						JOINT LeftForeArm
						{
							OFFSET 4.983000 -0.000000 -0.000000
							CHANNELS 3 Zrotation Yrotation Xrotation
							JOINT LeftHand
							{
								OFFSET 3.483560 -0.000000 -0.000000
								CHANNELS 3 Zrotation Yrotation Xrotation
								JOINT LeftFingerBase
								{
									OFFSET 0.000000 0.000000 0.000000
									CHANNELS 3 Zrotation Yrotation Xrotation
									JOINT LeftHandIndex1
									{
										OFFSET 0.715260 -0.000000 -0.000000
										CHANNELS 3 Zrotation Yrotation Xrotation
										End Site
										{
											OFFSET 0.000000 0.000000 0.000000
										}
									}
								}
								JOINT LThumb
								{
									OFFSET 0.000000 0.000000 0.000000
									CHANNELS 3 Zrotation Yrotation Xrotation
									End Site
									{
										OFFSET 0.000000 0.000000 0.000000
									}
								}
							}
						}
					}
				}
				JOINT RightShoulder
				{
					OFFSET 0.000000 0.000000 0.000000
					CHANNELS 3 Zrotation Yrotation Xrotation
					JOINT RightArm
					{
						OFFSET -3.136600 1.374050 -0.404650
						CHANNELS 3 Zrotation Yrotation Xrotation
						JOINT RightForeArm
						{
							OFFSET -5.241900 -0.000000 -0.000000
							CHANNELS 3 Zrotation Yrotation Xrotation
							JOINT RightHand
							{
								OFFSET -3.444170 -0.000000 -0.000000
								CHANNELS 3 Zrotation Yrotation Xrotation
								JOINT RightFingerBase
								{
									OFFSET 0.000000 0.000000 0.000000
									CHANNELS 3 Zrotation Yrotation Xrotation
									JOINT RightHandIndex1
									{
										OFFSET -0.622530 -0.000000 -0.000000
										CHANNELS 3 Zrotation Yrotation Xrotation
										End Site
										{
											OFFSET 0.000000 0.000000 0.000000
										}
									}
								}
								JOINT RThumb
								{
									OFFSET 0.000000 0.000000 0.000000
									CHANNELS 3 Zrotation Yrotation Xrotation
									End Site
									{
										OFFSET 0.000000 0.000000 0.000000
									}
								}
							}
						}
					}
				}
			}
		}
	}
}
MOTION
Frames: 4
Frame Time: 0.008333
28.118684 17.368449 -32.422949 0.870713 -43.046984 16.951322 4.385706 4.012313 -0.367440 -24.525751 -54.030087 0.200427 -2.813581 5.331789 17.935433 1.689533 25.752430 -49.101716 6.101000 14.525500 45.385800 -10.242023 -4.458008 1.154033 21.885467 31.970203 -24.235681 0.921001 -10.167158 26.289707 4.388584 -30.988561 -19.205362 -0.362900 -3.869600 10.710100 -0.112661 -0.112386 5.410262 0.755985 -0.112003 -1.495977 -1.352357 0.144438 -0.939538 -6.146075 1.235408 -18.264378 6.657584 2.356006 9.064678 2.876300 1.343200 4.979100 2.543335 -12.909774 1.495087 -89.907019 3.553895 20.205679 28.128845 -31.548982 -9.167784 -0.951460 -0.679314 26.394510 -5.453052 42.448692 -3.385700 -7.125000 0.000000 0.000000 -55.050100 65.282500 -31.028300 -3.376961 13.258531 3.565271 86.393881 -1.291966 34.116661 -27.247645 28.645031 -7.122199 -1.389970 -0.787634 -10.034030 -22.877091 23.372219 -9.128700 7.125000 0.000000 0.000000 4.887600 -4.264500 4.527500 
28.091670 17.374608 -32.432242 0.695264 -42.856615 17.192251 4.409541 3.997558 -0.376698 -24.065124 -53.745592 -0.152038 -2.813151 5.332446 17.920159 1.525374 25.622762 -48.551418 6.075500 14.501100 45.284000 -10.250742 -4.459606 1.158967 22.138212 31.950285 -24.254880 0.942884 -10.149115 26.232797 4.401239 -31.090722 -19.429637 -0.361900 -3.864400 10.695400 0.133174 -0.200211 5.423760 0.782226 -0.223319 -1.489240 -1.404811 0.090547 -0.947780 -6.193096 1.289954 -18.159776 6.692467 2.422357 8.788295 2.906800 1.380100 4.804500 2.541168 -12.916584 1.502299 -90.122977 3.624342 19.712942 28.313282 -31.708693 -9.235943 -0.932462 -0.648116 26.934201 -5.001638 41.559554 -3.029100 -7.125000 0.000000 0.000000 -53.106600 64.844300 -29.139600 -3.370145 13.248923 3.584666 86.360796 -1.300036 34.156447 -27.441997 28.839603 -7.221315 -1.391750 -0.779889 -10.052383 -22.842638 23.581867 -9.182900 7.125000 0.000000 0.000000 4.929900 -4.059900 4.585800 
28.060981 17.375257 -32.433755 0.920390 -42.942271 17.056626 4.314299 4.045684 -0.388150 -24.360560 -54.383187 0.515027 -2.823450 5.242237 17.722348 1.976894 25.135793 -49.402635 6.324100 14.735200 46.269000 -10.256768 -4.479254 1.171702 22.077798 31.869330 -24.331308 0.903783 -10.188653 26.314305 4.637660 -31.693345 -18.117599 -0.187300 -2.787500 7.687600 -0.111154 -0.289527 5.474807 0.835348 -0.353901 -1.503606 -1.126426 0.028425 -1.054303 -6.314284 1.470032 -17.797832 6.604585 2.668102 8.502428 2.875900 1.490800 4.557200 2.553463 -12.912752 1.495851 -90.658609 3.910986 18.956641 28.588485 -31.974415 -9.356751 -0.901005 -0.620149 27.623785 -4.727744 40.478595 -2.799600 -7.125000 0.000000 0.000000 -51.093700 64.203100 -27.031600 -3.349425 13.223620 3.624132 86.079656 -1.482624 34.589050 -27.659717 29.033927 -7.326649 -1.384049 -0.790140 -10.240329 -23.031495 23.499522 -9.246900 7.125000 0.000000 0.000000 4.803800 -4.102800 4.463800 
28.027051 17.371259 -32.431918 1.162535 -43.094605 16.882720 4.238700 4.090020 -0.389235 -24.727747 -54.894895 1.127677 -2.824614 5.195189 17.631032 2.367370 24.837885 -50.218904 6.478200 14.876300 46.872100 -10.261364 -4.497761 1.184498 22.007477 31.897687 -24.283352 0.871007 -10.184507 26.303160 4.877861 -32.324622 -16.478947 -0.073200 -1.745700 4.803500 -0.347818 -0.297715 5.565037 0.847957 -0.372301 -1.522058 -0.973525 0.018022 -1.113722 -6.284226 1.573874 -17.938726 6.499432 2.827183 8.496748 2.815900 1.563100 4.578400 2.568513 -12.912300 1.488250 -90.683456 3.967496 18.860970 28.663506 -32.043260 -9.392910 -0.897945 -0.595556 27.715163 -4.115367 40.211101 -2.374000 -7.125000 0.000000 0.000000 -50.076800 64.184900 -26.339000 -3.335057 13.233669 3.642544 85.916796 -1.617878 34.866296 -27.886602 29.247274 -7.436757 -1.368521 -0.815131 -10.490258 -23.430209 23.134815 -9.314600 7.125000 0.000000 0.000000 4.517700 -4.386600 4.172200 
